<svg width="142" height="139" viewBox="0 0 142 139" fill="none" xmlns="http://www.w3.org/2000/svg">
<g clip-path="url(#clip0_468_3457)">
<ellipse cx="70.6799" cy="69.024" rx="70.5" ry="68.5141" fill="#CEB8D4"/>
<path d="M70.68 58.722C67.1248 58.722 63.7152 59.8597 61.2013 61.8848C58.6873 63.9099 57.275 66.6565 57.275 69.5205C57.275 72.3844 58.6873 75.131 61.2013 77.1561C63.7152 79.1812 67.1248 80.3189 70.68 80.3189C74.2352 80.3189 77.6448 79.1812 80.1587 77.1561C82.6726 75.131 84.0849 72.3844 84.0849 69.5205C84.0849 66.6565 82.6726 63.9099 80.1587 61.8848C77.6448 59.8597 74.2352 58.722 70.68 58.722ZM70.68 87.5178C64.7546 87.5178 59.072 85.6217 54.8821 82.2465C50.6923 78.8713 48.3384 74.2936 48.3384 69.5205C48.3384 64.7473 50.6923 60.1696 54.8821 56.7944C59.072 53.4192 64.7546 51.5231 70.68 51.5231C76.6053 51.5231 82.288 53.4192 86.4778 56.7944C90.6677 60.1696 93.0215 64.7473 93.0215 69.5205C93.0215 74.2936 90.6677 78.8713 86.4778 82.2465C82.288 85.6217 76.6053 87.5178 70.68 87.5178ZM70.68 42.5244C48.3384 42.5244 29.2587 53.7188 21.5286 69.5205C29.2587 85.3221 48.3384 96.5165 70.68 96.5165C93.0215 96.5165 112.101 85.3221 119.831 69.5205C112.101 53.7188 93.0215 42.5244 70.68 42.5244Z" fill="white"/>
</g>
<defs>
<clipPath id="clip0_468_3457">
<rect width="141" height="138" fill="white" transform="translate(0.179932 0.509888)"/>
</clipPath>
</defs>
</svg>
