<svg width="142" height="139" viewBox="0 0 142 139" fill="none" xmlns="http://www.w3.org/2000/svg">
<g clip-path="url(#clip0_649_2714)">
<ellipse cx="70.6799" cy="69.024" rx="70.5" ry="68.5141" fill="#CEB8D4"/>
<path d="M99.1163 64.4472L100.992 62.6154L95.3644 57.1198L85.0548 47.0529L79.4269 41.5573L77.5509 43.3892L73.7989 47.0529L40.7286 79.345C39.0021 81.031 37.7404 83.1222 37.0431 85.4079L31.1661 104.926C30.7511 106.288 31.1329 107.763 32.1788 108.768C33.2247 109.773 34.7189 110.146 36.1134 109.757L56.0851 104.018C58.4259 103.337 60.5675 102.105 62.2941 100.419L95.3644 68.1271L99.1163 64.4472ZM57.5626 91.7464L56.0519 95.4263C55.3878 95.9288 54.6407 96.3017 53.8439 96.5448L40.8614 100.273L44.6798 87.6126C44.9122 86.8183 45.3107 86.0888 45.8253 85.4566L49.5939 83.9814V89.1689C49.5939 90.5954 50.7892 91.7626 52.2501 91.7626H57.5626V91.7464ZM91.214 30.0314L88.8234 32.382L85.0714 36.0456L83.1788 37.8775L88.8068 43.373L99.1163 53.44L104.744 58.9355L106.62 57.1036L110.372 53.44L112.779 51.0894C116.93 47.0366 116.93 40.4712 112.779 36.4185L106.255 30.0314C102.105 25.9786 95.381 25.9786 91.2306 30.0314H91.214ZM83.3448 57.2657L59.4386 80.6095C58.4093 81.6146 56.7159 81.6146 55.6866 80.6095C54.6573 79.6044 54.6573 77.9509 55.6866 76.9458L79.5929 53.6021C80.6222 52.597 82.3156 52.597 83.3448 53.6021C84.3741 54.6072 84.3741 56.2607 83.3448 57.2657Z" fill="white"/>
</g>
<defs>
<clipPath id="clip0_649_2714">
<rect width="141" height="138" fill="white" transform="translate(0.179932 0.509888)"/>
</clipPath>
</defs>
</svg>
