<svg width="142" height="139" viewBox="0 0 142 139" fill="none" xmlns="http://www.w3.org/2000/svg">
<g clip-path="url(#clip0_2010_2684)">
<ellipse cx="70.6799" cy="69.024" rx="70.5" ry="68.5141" fill="#CEB8D4"/>
<path d="M103.688 34.375H85.3125V29.0312C85.3125 26.6692 84.5059 24.4038 83.07 22.7336C81.6342 21.0633 79.6868 20.125 77.6562 20.125H62.3438C60.3132 20.125 58.3658 21.0633 56.93 22.7336C55.4941 24.4038 54.6875 26.6692 54.6875 29.0312V34.375H36.3125C35.5003 34.375 34.7213 34.7503 34.147 35.4184C33.5727 36.0865 33.25 36.9927 33.25 37.9375C33.25 38.8823 33.5727 39.7885 34.147 40.4566C34.7213 41.1247 35.5003 41.5 36.3125 41.5H39.5664L43.2031 109.392C43.4749 115.371 47.4141 119.875 52.3906 119.875H87.6094C92.6108 119.875 96.4715 115.471 96.7969 109.41L100.434 41.5H103.688C104.5 41.5 105.279 41.1247 105.853 40.4566C106.427 39.7885 106.75 38.8823 106.75 37.9375C106.75 36.9927 106.427 36.0865 105.853 35.4184C105.279 34.7503 104.5 34.375 103.688 34.375ZM57.8591 105.625H57.75C56.9563 105.626 56.1935 105.268 55.6222 104.627C55.0509 103.986 54.7158 103.112 54.6875 102.189L53.1562 52.3144C53.1273 51.3696 53.4222 50.4501 53.9761 49.7582C54.53 49.0663 55.2974 48.6587 56.1096 48.625C56.9219 48.5913 57.7123 48.9344 58.3071 49.5787C58.9019 50.223 59.2523 51.1158 59.2812 52.0606L60.8125 101.936C60.8271 102.403 60.7622 102.87 60.6217 103.309C60.4811 103.748 60.2675 104.15 59.9932 104.492C59.719 104.835 59.3893 105.112 59.0231 105.306C58.6569 105.5 58.2614 105.609 57.8591 105.625ZM73.0625 102.062C73.0625 103.007 72.7398 103.913 72.1655 104.582C71.5912 105.25 70.8122 105.625 70 105.625C69.1878 105.625 68.4088 105.25 67.8345 104.582C67.2602 103.913 66.9375 103.007 66.9375 102.062V52.1875C66.9375 51.2427 67.2602 50.3365 67.8345 49.6684C68.4088 49.0003 69.1878 48.625 70 48.625C70.8122 48.625 71.5912 49.0003 72.1655 49.6684C72.7398 50.3365 73.0625 51.2427 73.0625 52.1875V102.062ZM79.1875 34.375H60.8125V29.0312C60.8102 28.7966 60.8482 28.5638 60.9244 28.3464C61.0005 28.1291 61.1132 27.9317 61.2558 27.7657C61.3985 27.5998 61.5682 27.4687 61.755 27.3801C61.9419 27.2916 62.142 27.2473 62.3438 27.25H77.6562C77.858 27.2473 78.0581 27.2916 78.245 27.3801C78.4318 27.4687 78.6015 27.5998 78.7442 27.7657C78.8868 27.9317 78.9995 28.1291 79.0756 28.3464C79.1518 28.5638 79.1898 28.7966 79.1875 29.0312V34.375ZM85.3125 102.189C85.2842 103.112 84.9491 103.986 84.3778 104.627C83.8065 105.268 83.0437 105.626 82.25 105.625H82.139C81.7369 105.608 81.3416 105.5 80.9756 105.305C80.6096 105.111 80.2802 104.834 80.0061 104.492C79.732 104.149 79.5186 103.747 79.3782 103.308C79.2377 102.87 79.1729 102.403 79.1875 101.936L80.7188 52.0606C80.7331 51.5928 80.8265 51.1328 80.9936 50.7069C81.1608 50.2811 81.3984 49.8977 81.6929 49.5787C81.9874 49.2597 82.333 49.0112 82.7101 48.8476C83.0871 48.684 83.4882 48.6083 83.8904 48.625C84.2925 48.6417 84.6879 48.7503 85.054 48.9447C85.4201 49.1392 85.7497 49.4156 86.0239 49.7582C86.2982 50.1008 86.5117 50.5028 86.6524 50.9414C86.7931 51.38 86.8581 51.8466 86.8438 52.3144L85.3125 102.189Z" fill="white"/>
</g>
<defs>
<clipPath id="clip0_2010_2684">
<rect width="141" height="138" fill="white" transform="translate(0.179932 0.509888)"/>
</clipPath>
</defs>
</svg>
