<svg width="224" height="16" viewBox="0 0 224 16" fill="none" xmlns="http://www.w3.org/2000/svg">
<path d="M0.292886 7.29289C-0.0976387 7.68342 -0.0976387 8.31658 0.292886 8.70711L6.65685 15.0711C7.04737 15.4616 7.68054 15.4616 8.07106 15.0711C8.46158 14.6805 8.46158 14.0474 8.07106 13.6569L2.41421 8L8.07106 2.34315C8.46158 1.95262 8.46158 1.31946 8.07106 0.928932C7.68054 0.538408 7.04737 0.538408 6.65685 0.928932L0.292886 7.29289ZM124.684 7L0.999992 7V9L124.684 9V7Z" fill="#E1C057"/>
<path d="M222.76 8.70711C223.15 8.31658 223.15 7.68342 222.76 7.29289L216.396 0.928932C216.005 0.538408 215.372 0.538408 214.982 0.928932C214.591 1.31946 214.591 1.95262 214.982 2.34315L220.638 8L214.982 13.6569C214.591 14.0474 214.591 14.6805 214.982 15.0711C215.372 15.4616 216.005 15.4616 216.396 15.0711L222.76 8.70711ZM90.4737 9H222.053V7H90.4737V9Z" fill="#E1C057"/>
</svg>
