<svg width="60" height="60" viewBox="0 0 60 60" fill="none" xmlns="http://www.w3.org/2000/svg">
<path d="M30.0001 50.4C18.7201 50.4 9.6001 41.28 9.6001 30C9.6001 18.72 18.7201 9.60001 30.0001 9.60001C41.2801 9.60001 50.4001 18.72 50.4001 30C50.4001 41.28 41.2801 50.4 30.0001 50.4ZM30.0001 12C20.0401 12 12.0001 20.04 12.0001 30C12.0001 39.96 20.0401 48 30.0001 48C39.9601 48 48.0001 39.96 48.0001 30C48.0001 20.04 39.9601 12 30.0001 12Z" fill="#DCCF71"/>
<path d="M30.0001 41.28L18.3601 29.64L20.0401 27.96L30.0001 37.92L39.9601 27.96L41.6401 29.64L30.0001 41.28Z" fill="#DCCF71"/>
<path d="M28.8 19.2H31.2V39.6H28.8V19.2Z" fill="#DCCF71"/>
</svg>
