<svg width="315" height="124" viewBox="0 0 315 124" fill="none" xmlns="http://www.w3.org/2000/svg">
<path fill-rule="evenodd" clip-rule="evenodd" d="M32.2812 37.1774C34.9185 36.1458 36.2694 34.0525 37.3163 31.4546C37.8038 32.3818 38.1206 33.1316 38.5754 33.8072C39.071 34.5452 39.6255 35.2712 40.2822 35.8991C40.903 36.4955 41.6898 36.9587 42.4909 37.5439C41.1727 38.162 40.046 38.9392 39.3024 40.0275C38.597 41.0584 38.0257 42.1594 37.3809 43.2562C36.6875 42.1265 36.1273 40.9309 35.2823 39.9175C34.4533 38.9259 33.3345 38.1206 32.2812 37.1774Z" fill="#CAC779"/>
<path fill-rule="evenodd" clip-rule="evenodd" d="M120.64 14.7068C121.8 17.29 123.326 19.5073 126.051 20.8171C124.941 21.7632 123.71 22.5838 122.824 23.6294C121.924 24.6897 121.362 25.9708 120.633 27.1874C119.89 25.975 119.289 24.6841 118.378 23.5916C117.481 22.5173 116.272 21.6454 115.13 20.6216C117.998 19.5122 119.435 17.2472 120.64 14.7068Z" fill="#CAC779"/>
<path fill-rule="evenodd" clip-rule="evenodd" d="M189.091 11.441C190.252 14.0242 191.776 16.2415 194.503 17.5513C193.392 18.4974 192.162 19.3181 191.276 20.3637C190.375 21.424 189.814 22.7051 189.085 23.9217C188.343 22.7093 187.739 21.4184 186.83 20.3258C185.934 19.2515 184.724 18.3797 183.582 17.3558C186.451 16.2465 187.886 13.9815 189.091 11.441Z" fill="#CAC779"/>
<path fill-rule="evenodd" clip-rule="evenodd" d="M273.182 101.571C271.143 102.565 270.053 104.068 269.279 105.886C268.383 104.143 267.372 102.546 265.249 101.465C267.391 100.549 268.43 99.0191 269.262 96.9756C270.063 99.0205 271.117 100.562 273.182 101.571Z" fill="#CAC779"/>
<path fill-rule="evenodd" clip-rule="evenodd" d="M35.1978 113.861C33.1591 114.854 32.0683 116.358 31.2951 118.176C30.399 116.433 29.3872 114.836 27.2646 113.755C29.4063 112.839 30.4453 111.309 31.2775 109.266C32.0786 111.311 33.1327 112.852 35.1978 113.861Z" fill="#CAC779"/>
<path fill-rule="evenodd" clip-rule="evenodd" d="M244.126 46.0026C243.276 44.2148 242.192 42.6668 240.302 41.6625C242.777 39.8341 242.777 39.8341 244.082 37.3561C244.609 38.209 245.003 39.0562 245.606 39.7654C246.222 40.4908 247.045 41.0822 247.868 41.8132C245.942 42.6696 244.954 44.2394 244.126 46.0026Z" fill="#CAC779"/>
<path fill-rule="evenodd" clip-rule="evenodd" d="M44.9264 96.5208C41.7562 99.0444 38.0354 100.014 33.8893 99.7396C24.3203 99.1047 16.3417 96.0079 11.4982 88.2759C9.38922 84.9092 10.6659 83.1467 15.0299 83.1831C15.3762 83.1859 15.7233 83.1621 15.918 83.1558C14.0213 81.4444 11.973 79.7835 10.18 77.932C7.56194 75.2262 5.87508 72.0502 4.80025 68.6281C4.67258 68.2217 4.55848 67.8068 4.48507 67.3891C3.99593 64.5782 5.5982 63.0799 8.78199 63.7029C11.4032 64.2166 13.9215 65.1332 16.4845 65.8754C16.8061 65.9693 17.1181 66.0926 17.5825 66.0415C17.1245 65.6 16.6529 65.1683 16.2108 64.7127C9.477 57.786 6.15118 49.7478 6.1823 40.6583C6.18868 38.7409 6.55573 36.8242 7.68961 35.1059C8.37743 34.0638 9.38045 33.4555 10.7433 33.8444C12.6001 34.3763 14.4857 34.916 16.2101 35.7044C24.2078 39.3675 31.047 44.4097 37.4202 49.9335C43.6218 55.3086 49.7788 60.7315 55.7194 66.3288C59.6748 70.0571 62.9584 74.2619 64.6907 79.2404C65.9379 82.8278 66.4638 86.4412 65.4943 90.1681C63.3885 98.2645 53.5626 101.676 45.7188 97.003C45.501 96.874 45.2863 96.7402 44.9264 96.5208ZM34.625 91.049C34.5691 91.152 34.5109 91.2536 34.455 91.3559C32.3461 90.5696 30.2251 89.8057 28.1305 88.99C24.7832 87.6851 21.644 85.9128 17.9887 85.2947C16.5476 85.0501 15.0466 85.0389 13.5713 85.0108C12.5706 84.9926 12.1956 85.5561 12.6616 86.3136C13.4899 87.6606 14.2519 89.0853 15.3554 90.2472C20.6171 95.7892 27.6127 97.9028 35.6216 97.8426C38.5924 97.8201 41.0548 96.6491 43.408 95.1704C43.2133 94.8936 43.0992 94.731 42.9835 94.5684C39.6193 89.8387 40.5816 82.9386 45.1427 79.0715C48.3656 76.3384 52.8413 76.3825 55.279 79.171C57.0791 81.23 57.2738 84.7284 55.7123 86.936C54.584 88.531 52.2707 89.4028 50.3979 88.943C49.6431 88.7566 49.1579 88.4322 49.4117 87.6543C52.8157 87.8162 54.5337 86.7236 54.7308 84.1299C54.8042 83.1642 54.6358 82.113 54.252 81.2062C53.3854 79.1514 51.1352 78.2705 48.8244 79.1009C47.7695 79.4808 46.7625 80.1409 45.9694 80.8719C43.7599 82.9021 43.0928 85.4811 43.0265 88.1981C42.9691 90.5416 43.6114 92.7239 45.4499 94.492C49.2928 98.1895 59.2887 98.9232 62.6576 92.0301C64.1298 89.0194 64.2686 85.9149 63.6119 82.7423C62.4349 77.0574 59.224 72.273 54.7483 68.1873C47.7975 61.8429 40.7117 55.6114 33.5741 49.4289C28.2933 44.8548 22.4747 40.8511 15.9619 37.6897C14.3221 36.8936 12.5619 36.2825 10.8375 35.6287C10.1297 35.3603 9.53127 35.5425 9.30864 36.2531C8.95036 37.3996 8.3918 38.5426 8.32397 39.7059C7.95452 46.0384 9.51769 52.0247 13.043 57.5568C16.4965 62.9775 21.1007 67.6204 26.15 71.9366C26.4445 72.1875 26.727 72.451 27.015 72.7089C26.6328 72.7257 26.3695 72.6129 26.1157 72.4882C23.9501 71.4138 21.81 70.2995 19.6181 69.268C16.3337 67.7227 13.0143 66.2349 9.30784 65.5901C6.36023 65.0772 5.88625 65.5089 6.69218 68.0787C8.10135 72.5666 10.555 76.6446 14.6908 79.5074C19.3763 82.7514 24.5334 85.4734 29.5189 88.3768C31.1683 89.3376 32.9198 90.1631 34.625 91.049Z" fill="#CAC779"/>
<path fill-rule="evenodd" clip-rule="evenodd" d="M263.053 83.2678C266.374 86.4193 270.452 87.8307 275.117 87.8399C285.886 87.8651 295.095 84.9322 301.21 76.4196C303.874 72.7137 302.605 70.5847 297.719 70.2833C297.33 70.2581 296.943 70.2041 296.725 70.181C299.003 68.3617 301.446 66.6132 303.619 64.6243C306.794 61.7181 308.969 58.1986 310.479 54.3463C310.659 53.8887 310.824 53.4206 310.945 52.9461C311.745 49.7505 310.087 47.901 306.468 48.3664C303.487 48.7511 300.585 49.6068 297.648 50.2578C297.281 50.3398 296.921 50.4576 296.406 50.3616C296.957 49.8906 297.525 49.4302 298.059 48.9424C306.222 41.5055 310.668 32.5205 311.453 22.0631C311.616 19.857 311.379 17.6228 310.266 15.5561C309.589 14.3031 308.521 13.5245 306.961 13.8651C304.836 14.3297 302.676 14.8021 300.674 15.5736C291.392 19.1555 283.283 24.4171 275.652 30.2681C268.227 35.9621 260.846 41.715 253.692 47.6852C248.928 51.6622 244.876 56.2392 242.488 61.8302C240.768 65.8591 239.854 69.9743 240.604 74.3375C242.231 83.8165 252.923 88.5168 262.124 83.7605C262.379 83.628 262.631 83.4907 263.053 83.2678ZM275.079 77.7861C275.131 77.9088 275.186 78.0307 275.241 78.1519C277.672 77.414 280.114 76.7034 282.531 75.929C286.397 74.6914 290.068 72.9015 294.217 72.4782C295.852 72.3108 297.534 72.4152 299.186 72.5C300.31 72.5581 300.676 73.2358 300.089 74.0705C299.04 75.5541 298.058 77.133 296.717 78.3825C290.329 84.3428 282.309 86.2224 273.349 85.5202C270.027 85.2609 267.378 83.7191 264.874 81.8326C265.118 81.5305 265.261 81.3518 265.404 81.1738C269.595 75.9984 269.142 67.9854 264.384 63.1765C261.022 59.7776 256.009 59.4755 253.03 62.4904C250.829 64.7161 250.296 68.7247 251.846 71.3878C252.964 73.3122 255.474 74.4972 257.612 74.1167C258.476 73.9625 259.048 73.6261 258.832 72.7116C255.008 72.6303 253.185 71.2371 253.198 68.2384C253.201 67.122 253.485 65.925 253.996 64.9123C255.152 62.6179 257.749 61.7812 260.26 62.9193C261.407 63.4393 262.474 64.2781 263.296 65.1822C265.585 67.6924 266.103 70.7108 265.932 73.842C265.785 76.5422 264.869 79.002 262.651 80.8914C258.016 84.8418 246.763 84.8965 243.613 76.7013C242.237 73.1223 242.362 69.5398 243.381 65.9418C245.211 59.4944 249.236 54.244 254.615 49.8976C262.965 43.1482 271.458 36.5382 280.004 29.9892C286.326 25.1445 293.201 20.9979 300.776 17.8758C302.683 17.0888 304.707 16.5253 306.697 15.9086C307.512 15.6556 308.167 15.9121 308.352 16.7468C308.65 18.0937 309.172 19.4526 309.144 20.796C308.986 28.1103 306.699 34.8731 302.252 40.9589C297.897 46.9213 292.327 51.8991 286.287 56.4656C285.935 56.7312 285.595 57.0115 285.248 57.2862C285.674 57.3353 285.978 57.2259 286.275 57.1019C288.795 56.0367 291.292 54.9238 293.837 53.9097C297.652 52.3911 301.502 50.9425 305.708 50.4933C309.054 50.1352 309.547 50.6692 308.413 53.5621C306.432 58.6135 303.319 63.1113 298.43 66.0771C292.894 69.4396 286.876 72.1636 281.034 75.1105C279.101 76.0895 277.065 76.901 275.079 77.7861Z" fill="#CAC779"/>
<path fill-rule="evenodd" clip-rule="evenodd" d="M77.6208 30.8498C80.5948 37.7528 83.5615 44.6396 86.6432 51.7906C89.9347 44.6431 93.1105 37.7437 96.2983 30.8225C100.081 30.8225 103.784 30.8225 107.505 30.8225C107.762 31.1701 107.813 31.4609 107.325 31.6754C106.004 32.2542 105.613 33.2865 105.59 34.4786C105.569 35.6433 105.578 36.8095 105.578 37.9756C105.578 47.6145 105.58 57.2547 105.577 66.8936C105.575 68.4893 105.601 70.085 106.131 71.6275C106.309 72.144 106.53 72.664 106.841 73.1258C107.882 74.6753 109.545 74.8694 111.037 73.6213C112.317 72.5505 112.969 71.1818 113.006 69.6632C113.033 68.5195 112.782 67.3708 112.643 66.1017C112.748 66.0758 113.018 65.9678 113.297 65.9454C114.86 65.8235 116.391 65.9209 117.836 66.5306C120.259 67.5545 121.142 69.4319 120.255 71.6717C119.755 72.9373 118.776 73.8659 117.554 74.615C115.884 75.6389 113.999 76.1919 112.001 76.3958C109.835 76.6159 107.681 76.5205 105.557 75.9949C100.18 74.6634 96.6254 70.7887 96.3398 65.8921C96.3079 65.3497 96.3087 64.8038 96.3087 64.26C96.3071 56.1762 96.3071 48.0917 96.3071 40.0079C96.3071 39.5812 96.3071 39.1558 96.3071 38.7402C96.2105 38.7227 96.1682 38.7066 96.1283 38.7101C96.0916 38.7129 96.0477 38.7311 96.0246 38.7549C95.9671 38.8131 95.9033 38.874 95.8706 38.9441C92.4402 46.4364 89.0131 53.9308 85.5572 61.4848C84.0618 61.4848 82.5737 61.4848 80.9618 61.4848C77.8004 54.1579 74.6277 46.8029 71.4559 39.4494C71.3801 39.4536 71.3043 39.4578 71.2285 39.462C71.2046 39.701 71.1615 39.94 71.1607 40.1782C71.1575 46.5521 71.1575 52.9259 71.1647 59.3011C71.1655 59.7258 71.2141 60.1533 71.274 60.5758C71.416 61.5752 72.0089 62.2949 73.0382 62.7532C73.6343 63.0188 73.6231 63.0371 73.5194 63.7344C70.8854 63.7344 68.2442 63.7344 65.6022 63.7344C65.3229 63.3048 65.3405 63.0104 65.8982 62.7953C67.293 62.2599 67.7534 61.2094 67.8316 59.9703C67.8436 59.7762 67.8372 59.5814 67.8372 59.3873C67.8372 51.2635 67.8388 43.1398 67.8308 35.0175C67.83 34.5543 67.7925 34.0833 67.6888 33.6313C67.4646 32.6537 66.9076 32.187 65.8033 32.1337C61.5662 31.9284 58.684 33.8927 58.0576 37.3967C57.4121 41.0171 58.9665 43.9626 62.0146 46.3131C63.0288 47.0959 64.296 47.6299 65.457 48.2634C65.8192 48.4596 66.2158 48.6082 66.6355 48.7967C66.5015 48.9614 66.452 49.0932 66.3531 49.1338C63.3217 50.4023 60.153 51.0274 56.8248 50.3763C52.8096 49.5907 50.0479 46.5619 49.8548 42.7859C49.6329 38.4613 51.8959 35.2509 55.8824 32.9018C58.2962 31.4799 61.0196 30.8127 63.909 30.7833C68.2889 30.7391 72.6704 30.7728 77.0519 30.777C77.1796 30.7777 77.3088 30.8085 77.6208 30.8498Z" fill="#B898D3"/>
<path fill-rule="evenodd" clip-rule="evenodd" d="M143.201 87.8449C142.727 87.9668 142.399 88.0362 142.083 88.135C137.862 89.4392 137.988 89.9963 132.758 90.5738C131.051 90.6957 130.642 90.6397 128.929 90.4876C128.119 90.4147 127.288 90.1029 126.573 89.7384C124.921 88.8968 124.365 87.3809 125.004 85.8013C125.635 84.2399 127.42 83.0023 129.401 82.764C129.437 82.8537 129.502 82.9448 129.507 83.0394C129.604 84.5728 130.626 85.4951 132.125 86.095C133.44 86.6199 138.086 86.7537 141.443 86.1601C144.071 85.6948 146.663 85.0599 149.267 84.4887C150.109 84.3037 150.51 84.5322 150.553 85.2841C150.567 85.5196 150.556 85.7565 150.556 85.9933C150.556 93.8571 150.554 101.721 150.558 109.585C150.558 109.989 150.55 110.398 150.617 110.796C150.731 111.456 151.068 112.034 151.759 112.356C152.144 112.534 152.272 112.727 152.087 113.135C148.638 113.135 145.159 113.135 141.666 113.135C141.469 112.835 141.456 112.59 141.866 112.397C142.874 111.926 143.142 111.09 143.187 110.182C143.228 109.374 143.201 108.563 143.201 107.753C143.201 101.508 143.201 95.2657 143.201 89.0208C143.201 88.6606 143.201 88.3025 143.201 87.8449Z" fill="#B898D3"/>
<path fill-rule="evenodd" clip-rule="evenodd" d="M225.156 48.8598C224.307 46.1014 221.992 44.9766 219.156 44.4412C216.935 44.0214 214.751 44.3606 212.591 44.8176C209.062 45.5646 205.91 47.0398 202.841 48.6909C202.171 49.0525 202.167 49.5284 202.167 50.0792C202.171 55.9092 202.169 61.7406 202.169 67.5699C202.169 68.6197 202.159 69.6695 202.18 70.7193C202.2 71.8181 202.491 72.7923 203.751 73.3473C203.967 73.4433 204.039 73.7867 204.258 74.1441C203.667 74.1841 203.324 74.2275 202.983 74.2275C199.663 74.2331 196.344 74.2317 193.025 74.2303C192.803 74.2303 192.571 74.2626 192.364 74.2156C192.174 74.1729 191.871 74.0467 191.867 73.9472C191.856 73.7552 191.96 73.4433 192.122 73.3767C193.523 72.8007 193.755 71.6892 193.763 70.542C193.795 65.3722 193.778 60.2023 193.776 55.0325C193.776 53.9469 193.361 53.0653 192.227 52.5047C192.037 52.4101 191.792 52.094 191.845 51.9875C191.946 51.7864 192.226 51.5656 192.47 51.5222C194.201 51.2117 195.66 50.4016 197.128 49.6076C200.595 47.7343 204.006 45.7805 207.538 44.0095C211.308 42.1195 215.28 40.5875 219.527 39.687C221.657 39.235 223.809 39.045 225.957 39.5791C228.501 40.2119 229.818 41.8952 229.649 44.2093C229.483 46.5261 227.617 48.4933 225.156 48.8598Z" fill="#B898D3"/>
<path fill-rule="evenodd" clip-rule="evenodd" d="M206.9 102.978C209.855 103.15 206.738 106.928 209.694 107.096C209.892 107.107 210.095 107.151 210.283 107.114C210.455 107.081 210.733 106.971 210.746 106.871C210.769 106.68 210.699 106.363 210.561 106.289C209.354 105.642 209.403 110.381 209.481 109.236C209.834 104.075 210.23 98.9169 210.61 93.7582C210.692 92.6748 211.125 91.8163 212.177 91.3131C212.355 91.2297 212.594 90.9256 212.554 90.8163C212.479 90.6102 212.247 90.3769 212.034 90.3215C210.513 89.9228 209.274 89.0411 208.024 88.1749C205.076 86.13 202.182 84.0073 199.166 82.0604C195.946 79.9826 192.52 78.2523 188.803 77.1394C186.939 76.5801 185.035 76.2816 183.084 76.7063C180.771 77.2088 179.475 78.8213 179.452 81.1396C179.432 83.4606 180.948 85.5182 183.113 86.0081C184.073 83.2995 186.218 82.2945 188.784 81.9034C190.792 81.5972 192.712 82.0457 194.604 82.6127C197.691 83.5363 200.651 85.5981 203.263 87.4019C203.834 87.7951 204.165 91.7371 204.125 92.2866C203.693 98.1046 205.248 100.601 204.818 106.42C204.742 107.467 204.776 108.115 204.679 109.161" fill="#B898D3"/>
<path fill-rule="evenodd" clip-rule="evenodd" d="M234.306 67.0863C234.527 67.1641 234.762 67.2468 235.045 67.3456C234.994 67.5327 234.981 67.6869 234.909 67.8158C232.562 72.0921 228.72 74.6073 223.314 74.8701C218.235 75.1182 214.21 73.1672 211.407 69.4536C206.01 62.3068 210.812 51.9034 221.192 50.8984C224.912 50.5382 228.221 51.2902 231.089 53.3856C232.723 54.5776 233.905 56.0409 234.224 57.9695C234.737 61.0818 232.093 63.3419 228.527 62.7932C227.026 62.5626 225.932 61.9732 224.835 60.7735C225.639 59.8379 226.354 58.8308 226.57 57.6093C226.748 56.5981 226.791 55.598 226.429 54.6134C225.678 52.5684 223.323 51.7871 221.212 52.8712C220.264 53.3583 219.552 54.0485 219.12 54.9224C217.196 58.828 217.227 62.7196 219.552 66.4766C222.191 70.7403 227.534 71.0367 231.03 69.6281C232.286 69.1228 232.752 68.7493 234.306 67.0863Z" fill="#B898D3"/>
<path fill-rule="evenodd" clip-rule="evenodd" d="M189.042 52.5165C187.625 52.5165 186.401 52.5165 185.048 52.5165C185.015 52.977 184.967 53.3484 184.967 53.7191C184.96 59.3158 184.959 64.9131 184.967 70.5097C184.968 71.1502 184.77 71.9155 185.678 72.2316C186.495 72.5161 187.234 72.2316 187.878 71.7494C188.012 71.6478 188.142 71.5441 188.326 71.3997C188.544 71.5756 188.758 71.748 188.963 71.912C186.789 74.8344 182.365 75.9031 178.873 74.3992C177.219 73.6857 176.525 72.5119 176.537 70.9127C176.567 66.9489 176.547 62.9845 176.548 59.02C176.548 57.2708 176.551 55.5223 176.543 53.7731C176.543 53.3954 176.5 53.019 176.473 52.5866C175.643 52.5446 174.907 52.5088 174.115 52.4689C174.115 52.0736 174.115 51.7387 174.115 51.382C178.269 50.3034 180.831 47.5331 183.348 44.7012C183.644 44.3683 183.763 43.706 184.456 43.8644C185.241 44.0445 184.945 44.6949 184.951 45.156C184.978 47.1337 184.963 49.112 184.963 51.2229C186.315 51.2229 187.573 51.2229 188.913 51.2229C188.959 51.6798 188.991 52.0092 189.042 52.5165Z" fill="#B898D3"/>
<path fill-rule="evenodd" clip-rule="evenodd" d="M195.331 47.0825C192.65 47.0601 190.528 45.2464 190.567 43.0108C190.606 40.7591 192.727 39.0471 195.458 39.0604C198.072 39.0737 200.129 40.8299 200.134 43.0585C200.141 45.3193 198.009 47.1035 195.331 47.0825Z" fill="#B898D3"/>
<path fill-rule="evenodd" clip-rule="evenodd" d="M252.384 109.136C252.101 109.323 251.824 109.549 251.504 109.709C250.826 110.048 250.121 110.301 249.349 109.908C248.635 109.545 248.727 108.929 248.726 108.348C248.721 106.842 248.724 105.334 248.724 103.829C248.721 101.066 248.763 98.3036 248.706 95.5425C248.637 92.3153 246.873 89.9823 243.614 88.5316C242.898 88.2121 242.123 87.9773 241.35 87.7804C238.842 87.1433 236.271 87.0522 233.699 87.322C231.452 87.5575 229.333 88.1959 227.476 89.3719C226.135 90.2199 225.01 91.2487 224.585 92.6958C224.148 94.1787 224.219 95.6188 225.537 96.7955C227.473 98.5216 231.456 98.4627 233.454 96.6883C232.455 95.2271 232.394 93.6818 233.053 92.1204C233.499 91.0671 234.321 90.2605 235.514 89.7889C236.496 89.4013 237.425 89.5359 238.134 90.2122C238.605 90.6593 239.04 91.2199 239.223 91.7946C239.486 92.6292 239.519 93.5213 239.63 94.391C239.803 95.7765 239.074 96.7773 237.707 97.3267C236.418 97.8432 235.05 98.2217 233.686 98.5777C232.184 98.9708 230.621 99.1951 229.131 99.6219C226.64 100.337 224.653 101.665 223.445 103.752C221.678 106.805 222.819 110.368 226.048 111.943C227.592 112.695 229.265 112.951 231.017 112.798C234.067 112.531 236.517 111.277 238.511 109.275C238.813 108.97 239.107 108.661 239.549 108.209C239.596 108.702 239.622 108.982 239.65 109.261C239.784 110.572 240.484 111.616 241.821 112.173C244.869 113.444 247.927 113.355 250.812 111.794C251.594 111.372 252.156 110.624 252.784 109.998C253.208 109.575 252.887 109.335 252.384 109.136ZM239.621 105.343C239.62 105.584 239.553 105.851 239.422 106.059C238.602 107.362 237.385 108.272 235.727 108.608C233.64 109.028 231.946 107.835 231.813 105.954C231.74 104.911 232.062 103.968 232.713 103.113C234.416 100.88 236.896 99.4326 239.631 97.7703C239.631 100.51 239.636 102.928 239.621 105.343Z" fill="#B898D3"/>
<path fill-rule="evenodd" clip-rule="evenodd" d="M133.903 110.001C133.634 110.179 133.37 110.394 133.067 110.545C132.424 110.868 131.754 111.107 131.02 110.734C130.342 110.39 130.43 109.805 130.428 109.253C130.424 107.822 130.427 106.39 130.426 104.958C130.424 102.335 130.463 99.7094 130.408 97.0863C130.344 94.021 128.667 91.8051 125.571 90.4259C124.891 90.1224 124.155 89.8989 123.42 89.7118C121.037 89.107 118.595 89.0208 116.152 89.2759C114.016 89.4994 112.005 90.107 110.24 91.2227C108.967 92.0286 107.897 93.007 107.493 94.3819C107.078 95.7906 107.145 97.1585 108.399 98.2763C110.236 99.9169 114.023 99.8615 115.92 98.1747C114.971 96.7871 114.913 95.3182 115.539 93.8346C115.962 92.8339 116.743 92.0679 117.877 91.6201C118.811 91.2514 119.692 91.379 120.366 92.0209C120.814 92.4456 121.227 92.9789 121.401 93.5248C121.652 94.3174 121.684 95.1647 121.787 95.9917C121.953 97.3071 121.259 98.2588 119.959 98.7802C118.736 99.2721 117.435 99.6309 116.141 99.9687C114.713 100.341 113.229 100.556 111.813 100.961C109.446 101.64 107.558 102.902 106.411 104.884C104.731 107.786 105.816 111.171 108.885 112.666C110.35 113.381 111.939 113.625 113.604 113.478C116.501 113.225 118.829 112.032 120.721 110.131C121.009 109.843 121.29 109.547 121.708 109.118C121.754 109.587 121.779 109.853 121.806 110.118C121.932 111.362 122.597 112.356 123.868 112.885C126.763 114.093 129.669 114.008 132.41 112.524C133.152 112.123 133.686 111.413 134.283 110.819C134.685 110.418 134.38 110.19 133.903 110.001ZM121.778 106.399C121.776 106.627 121.712 106.881 121.588 107.078C120.808 108.316 119.653 109.182 118.077 109.499C116.096 109.899 114.485 108.767 114.359 106.977C114.29 105.987 114.596 105.092 115.214 104.279C116.833 102.158 119.187 100.782 121.786 99.2028C121.786 101.806 121.791 104.102 121.778 106.399Z" fill="#B898D3"/>
<path fill-rule="evenodd" clip-rule="evenodd" d="M166.757 88.7068C170.979 88.7068 174.952 88.7068 179.125 88.7068C179.159 89.2731 179.22 89.8463 179.22 90.4196C179.228 95.3729 179.204 100.327 179.24 105.281C179.249 106.465 178.888 107.968 180.683 108.259C181.885 108.453 183.719 106.854 183.747 105.398C183.838 100.882 183.85 96.3603 183.708 91.8471C183.69 91.2487 182.603 90.6852 182.011 90.1063C181.902 90.1911 181.792 90.2766 181.682 90.3614C181.682 89.8407 181.682 89.3193 181.682 88.7061C185.981 88.7061 190.213 88.7061 194.641 88.7061C194.641 89.381 194.641 89.9641 194.641 90.5464C194.641 96.5341 194.642 102.523 194.639 108.511C194.638 109.339 194.58 110.09 195.637 110.475C195.998 110.608 196.096 111.476 196.4 112.219C192.283 112.219 188.486 112.219 184.442 112.219C184.442 110.964 184.442 109.704 184.442 108.446C182.198 111.235 179.58 112.761 176.111 112.721C171.54 112.67 168.657 110.107 168.445 105.46C168.255 101.277 168.369 97.0807 168.353 92.8892C168.35 91.8696 168.566 90.8113 167.18 90.3649C166.916 90.2808 166.912 89.374 166.757 88.7068Z" fill="#B898D3"/>
<path fill-rule="evenodd" clip-rule="evenodd" d="M168.635 56.9772C166.051 56.9772 163.763 56.9772 161.252 56.9772C161.252 56.1432 161.165 55.3814 161.27 54.64C161.486 53.1473 160.649 52.6553 159.118 52.717C158.06 52.7597 156.886 52.5712 155.975 52.9167C155.132 53.2356 154.126 54.0702 154.008 54.7822C153.892 55.4887 154.571 56.6835 155.294 57.0311C156.911 57.8062 158.777 58.1769 160.533 58.7313C162.467 59.3417 164.461 59.8469 166.309 60.6171C172.578 63.2325 171.276 70.9007 166.876 73.0151C164.844 73.992 162.51 74.7138 160.224 75.0046C155.229 75.6389 150.267 75.3312 145.493 73.6234C144.306 73.2001 143.849 72.6429 143.95 71.5406C144.05 70.4606 143.972 69.3681 143.972 68.1753C146.649 68.1753 149.121 68.1753 151.886 68.1753C151.886 69.3295 151.784 70.4711 151.936 71.5854C151.997 72.0451 152.566 72.7831 152.966 72.816C154.623 72.9569 156.326 73.0193 157.969 72.8307C159.286 72.6787 160.165 71.8272 160.301 70.563C160.437 69.3078 159.809 68.3919 158.513 67.9476C156.776 67.3498 154.98 66.8816 153.214 66.3427C151.919 65.9482 150.583 65.6223 149.351 65.11C146.173 63.789 144.521 61.5926 144.565 58.4362C144.607 55.3471 146.262 53.1066 149.39 51.9426C155.453 49.6839 161.577 49.9979 167.587 52.2187C168.066 52.396 168.519 53.0779 168.588 53.5685C168.739 54.6449 168.635 55.7486 168.635 56.9772Z" fill="#B898D3"/>
<path fill-rule="evenodd" clip-rule="evenodd" d="M114.694 49.5704C120.659 49.5704 126.01 49.5704 131.558 49.5704C131.592 50.1164 131.624 50.6174 131.659 51.1872C130.846 51.3112 130.19 51.4101 129.197 51.5621C130.996 55.6709 132.742 59.6655 134.712 64.1682C136.884 59.8022 138.829 55.8917 140.714 52.1024C140.081 51.0309 137.32 51.8249 138.527 49.6083C140.616 49.6083 142.778 49.6083 145.048 49.6083C145.331 50.3581 145.637 50.9622 144.411 51.5467C143.704 51.8831 143.284 52.8117 142.914 53.544C139.403 60.5037 135.987 67.4998 132.415 74.4329C131.29 76.6152 129.972 78.7666 128.388 80.7086C126.164 83.4368 123.042 84.5132 119.188 83.6498C118.193 83.427 117.695 83.099 117.737 82.1186C117.814 80.2769 117.758 78.4324 117.758 76.9081C120.37 77.0777 122.809 77.2669 125.25 77.3762C125.778 77.3994 126.348 77.1863 126.856 76.9971C128.243 76.4771 128.796 75.8226 128.03 74.3579C124.393 67.3905 120.919 60.3558 117.327 53.3702C116.942 52.6224 116.111 52.0611 115.584 51.3575C115.238 50.8943 115.063 50.3301 114.694 49.5704Z" fill="#B898D3"/>
<path fill-rule="evenodd" clip-rule="evenodd" d="M202.202 86.6093C205.932 86.6093 209.122 86.6065 212.315 86.6122C212.778 86.6136 213.241 86.6549 213.897 86.6864C213.897 88.7061 213.897 90.6551 213.897 92.6033C215.644 89.1904 217.046 85.5658 221.76 86.6107C221.76 89.5282 221.76 92.44 221.76 95.2783C219.964 95.3918 218.166 95.5306 216.367 95.6126C214.879 95.6805 214.483 96.5033 214.539 98.0268C214.642 100.905 214.569 103.791 214.569 106.673C214.569 109.179 214.569 109.179 216.913 109.645C216.943 110.095 216.972 110.578 217.01 111.166C212.153 111.166 207.405 111.166 202.346 111.166C202.586 110.482 202.656 109.636 202.961 109.523C204.027 109.128 204.049 108.325 204.045 107.376C204.033 101.782 204.073 96.1851 203.995 90.5906C204.282 89.367 204.461 89.1883 204.144 88.5106C203.897 87.9857 203.263 87.4013 202.202 86.6093Z" fill="#B898D3"/>
<path fill-rule="evenodd" clip-rule="evenodd" d="M165.785 111.714C165.455 111.388 164.995 111.125 164.78 110.751C162.911 107.499 161.077 103.55 159.261 100.275C159.124 100.03 161.934 93.4989 163.629 89.8547C165.237 90.1533 165.678 88.9472 165.461 88.2933C162.871 88.2933 160.363 88.2933 157.758 88.2933C157.786 88.7313 157.809 89.074 157.83 89.3985C158.734 89.5478 158.821 89.2149 159.988 89.4097C157.799 92.8661 155.054 101.279 152.657 103.097C151.702 103.822 151.608 104.444 152.141 105.396C153.273 107.425 154.293 109.501 155.374 111.587C154.849 111.781 154.443 111.931 154.02 112.088C154.051 112.473 154.077 112.782 154.105 113.134C158.262 113.134 162.354 113.134 166.447 113.134C166.57 113.018 166.695 112.901 166.818 112.784C166.474 112.426 166.139 112.063 165.785 111.714Z" fill="#B898D3"/>
<path fill-rule="evenodd" clip-rule="evenodd" d="M102.676 96.7044C101.513 95.6483 100.158 94.8326 98.8002 94.2278C96.9315 93.3952 94.9837 92.8318 93.0566 92.2221C91.1607 91.6208 89.2536 91.0776 87.3537 90.4995C85.7036 89.9564 78.7232 87.2393 84.5593 81.7079L84.9998 81.4065C88.2012 79.3574 91.3905 80.0526 92.9737 81.6532C93.4588 82.1445 93.8482 82.722 94.3453 83.2013C94.6653 83.5083 95.0619 83.7683 95.4975 83.9435C96.5971 84.3857 97.9815 83.8397 98.9207 82.6442C100.178 81.0428 100.364 78.9516 99.3612 77.665C98.4843 76.5388 97.3097 75.5177 95.5534 75.7441C94.2344 75.9137 93.2968 76.1729 91.9547 76.5065C91.9547 76.5065 86.7305 74.9248 83.0089 75.6123C78.1622 76.5065 75.6295 78.3917 74.1007 81.7086C74.1007 81.7086 69.5125 90.1582 80.6558 97.1508C81.508 97.8972 82.515 98.4389 83.5108 98.8426C85.149 99.5062 86.8446 99.9442 88.4988 100.55C90.4482 101.263 92.3959 101.999 94.3158 102.83C95.5454 103.363 96.6035 104.285 97.3288 105.696C98.1132 107.223 97.9688 108.705 96.8213 109.815C96.238 110.381 95.5526 110.851 94.856 111.152C92.5372 112.157 90.1577 112.205 87.8006 111.414C87.0058 111.147 86.2294 110.641 85.5392 110.068C84.4029 109.123 84.0877 107.709 84.6072 106.133C84.8227 105.483 85.2104 104.921 85.5177 104.317C85.6677 104.025 85.8137 103.731 86.0786 103.204C84.4763 102.981 83.0799 102.642 81.6788 102.616C74.2882 102.476 66.896 102.414 59.523 103.247C57.6199 103.462 55.7735 104.031 54.0587 105.15C52.9448 105.877 51.9545 106.79 51.2532 108.123C50.0363 110.435 50.2214 113.133 51.7487 115.135C53.3908 117.288 55.42 117.437 57.691 116.987C56.8563 114.133 57.7819 112.103 59.3818 110.425C59.9843 109.794 60.6817 109.262 61.395 108.844C62.3119 108.308 63.2726 107.855 64.2445 107.497C68.0403 106.106 71.9303 105.401 75.8729 105.143C76.5615 105.099 77.2534 105.138 78.1159 105.138C77.8103 105.601 77.5933 105.919 77.385 106.248C75.3511 109.453 75.837 113.008 78.5995 115.194C79.9735 116.281 81.4912 116.895 83.0847 117.108C89.1842 117.92 94.8664 116.257 100.135 112.374C101.633 111.271 102.933 109.845 103.977 108.086C106.315 104.15 105.85 99.5847 102.676 96.7044Z" fill="#B898D3"/>
<path fill-rule="evenodd" clip-rule="evenodd" d="M163.286 4.60314C163.286 4.60314 154.001 3.12254 150.817 10.0491C150.817 10.0491 144.749 19.6349 154.582 27.4084C154.582 27.4084 168.418 36.6493 173.513 15.5041C173.513 15.5041 179.106 42.2392 152.385 39.8487C152.385 39.8487 134.115 36.6047 137.394 16.122C137.394 16.122 143.239 -5.2697 163.286 4.60314Z" fill="#CAC779"/>
</svg>
